<svg id="Layer_1" data-name="Layer 1" xmlns="http://www.w3.org/2000/svg" viewBox="0 0 50 50"><defs><style>.cls-1{fill:#fff;}</style></defs><title>mail</title><path class="cls-1" d="M1.005,12.57,24.992,32.547,48.898,12.64c.044.406.098.67.098.934q.005,12.11-.003,24.218c-.002,2.09-1.063,3.193-3.159,3.196q-20.892.026-41.784.005a2.734,2.734,0,0,1-3.01434-2.42142Q1.02227,38.4487,1.02,38.325c-.033-8.486-.015-16.972-.015-25.754Z"/><path class="cls-1" d="M24.99,28.285,2.17,9.268l.06-.39a14.92672,14.92672,0,0,1,2.107-.296q17.012-.03,34.024-.017c2.428,0,4.855-.027,7.282.008a16.68781,16.68781,0,0,1,2.119.292l.07.387Z"/></svg>