<svg id="Layer_1" data-name="Layer 1" xmlns="http://www.w3.org/2000/svg" width="300" height="96" viewBox="0 0 300 96"><defs><style>.cls-1,.cls-2{fill:#fff;}.cls-1{opacity:0.9;isolation:isolate;}</style></defs><title>zowe-logo</title><polygon class="cls-1" points="217.252 63.317 218.348 64.882 217.539 62.528 217.252 63.317"/><path class="cls-2" d="M124.15661,62.34131h28.74261v7.8573H113.07869V64.02975L139.825,27.135H114.48653v-7.8573h36.92435v5.8385Z"/><path class="cls-2" d="M198.44695,51.13909c0,14.03563-9.40721,20.13581-19.23121,20.13581-9.82518,0-19.23239-6.10019-19.23239-20.13581,0-14.03445,9.40721-20.13463,19.23239-20.13463C189.03974,31.00446,198.44695,37.10464,198.44695,51.13909Zm-29.55369,0c0,7.91056,3.931,12.41823,10.32248,12.41823,6.42934,0,10.32248-4.5858,10.32248-12.41823,0-7.83126-3.89314-12.41823-10.32248-12.41823-6.39146,0-10.32247,4.50883-10.32247,12.41823Z"/><path class="cls-2" d="M243.06638,70.19861h-5.76155l-8.72876-25.39414-9.22251,25.39415H213.592L201.22709,32.08075h8.64828L217.26379,58.608l8.827-26.52727h5.71181l8.56654,26.83985,7.894-26.83986h8.44812Z"/><path class="cls-2" d="M294.99963,49.03742a27.51355,27.51355,0,0,1-.45585,5.13163H268.38949c1.03958,7.26883,5.23463,9.9649,10.86832,9.9649a16.86554,16.86554,0,0,0,10.85173-3.8659l3.63027,5.67748c-3.94168,3.33545-8.96556,5.32937-15.78564,5.32937-9.97319,0-18.37871-6.42462-18.37871-19.95108,0-12.41112,7.328-20.31934,18.09335-20.31934,11.70542,0,17.33082,8.85072,17.33082,18.03178Zm-8.0278-.75069c-.26169-6.33817-3.66344-10.37694-9.08988-10.37694-5.35544,0-8.99634,3.281-9.63928,10.377Z"/><path class="cls-2" d="M83.25885,54.648,43.88659,82.21677a2.89848,2.89848,0,0,1-4.55233-2.59723L43.72147,22.7717l-32.172,22.52706L37.8714,82.89036A2.89837,2.89837,0,1,1,33.123,86.21523h0L5.13865,46.2494a2.8985,2.8985,0,0,1,.71177-4.03664L45.42053,14.50549a2.89848,2.89848,0,0,1,4.55234,2.59722L45.58564,73.95055l32.172-22.52705L51.57422,14.02974a2.89837,2.89837,0,1,1,4.74841-3.32487h0L84.02992,50.275a3.34251,3.34251,0,0,1-.77108,4.373Z"/></svg>
