<svg id="Layer_1" data-name="Layer 1" xmlns="http://www.w3.org/2000/svg" viewBox="0 0 30 30"><defs><style>.cls-1{fill:#fff;}.cls-2{opacity:0.6;}</style></defs><title>forums</title><polygon class="cls-1" points="5.287 20.073 1.671 20.073 1.671 28.5 10.098 28.5 10.098 24.891 5.287 24.891 5.287 20.073"/><polygon class="cls-1" points="23.337 20.1 23.337 24.891 18.546 24.891 18.526 24.864 18.526 28.5 26.946 28.5 26.946 20.073 23.31 20.073 23.337 20.1"/><polygon class="cls-1" points="1.671 11.652 5.314 11.652 5.287 11.625 5.287 6.834 5.287 6.834 10.071 6.834 10.098 6.861 10.098 3.225 1.671 3.225 1.671 11.652"/><g class="cls-2"><polyline class="cls-1" points="13.261 6.834 15.732 6.834 19.457 3.225 10.098 3.225 10.098 6.861"/><polyline class="cls-1" points="15.356 24.891 13.707 24.891 10.098 24.891 10.098 28.5 18.526 28.5 18.526 24.864"/><polyline class="cls-1" points="23.31 20.073 26.946 20.073 26.946 9.79 23.337 13.515 23.337 15.261 23.337 16.91"/><polyline class="cls-1" points="5.314 11.652 1.671 11.652 1.671 20.073 5.287 20.073 5.287 14.815"/></g><path class="cls-1" d="M7.8152,22.05025c.08089-.25731.11946-.52412.17416-.78715q.57824-2.78037,1.15181-5.56171c.03434-.16593.06934-.33173.10589-.50647.01547.01631.02528.02257.02927.03145a1.49809,1.49809,0,0,0,1.23675.85873,1.90106,1.90106,0,0,0,.31612.02553c.08533-.00052.10076.02572.09276.10844A2.71966,2.71966,0,0,0,11.12718,17.59a2.227,2.227,0,0,0,1.59569,1.28034,4.30012,4.30012,0,0,0,.98688.12237c.05377.00122.09221-.00086.09508.07833a1.33489,1.33489,0,0,0,1.08322,1.33248c.02383.00645.05213.0015.07622.03814-.26372.06178-.52285.12268-.78207.18318q-3.14334.73368-6.28673,1.46715c-.02084.00487-.04447.00249-.05835.024C7.79009,22.10734,7.8259,22.071,7.8152,22.05025Z"/><path class="cls-1" d="M13.43514,17.92409a1.57507,1.57507,0,0,1-1.4589-.95941,1.53867,1.53867,0,0,1,.32062-1.68451c.6008-.60831,1.20789-1.21042,1.81246-1.815q4.30952-4.30964,8.61726-8.621c.077-.07717.11321-.07892.1909-.00039Q23.92743,5.8645,24.9476,6.87513c.06257.06213.06945.09257.00283.15911Q19.73907,12.24,14.5319,17.45A1.56445,1.56445,0,0,1,13.43514,17.92409Z"/><path class="cls-1" d="M29.30263,5.417a2.1436,2.1436,0,0,1-.60571,1.43516c-.36251.381-.74279.745-1.1111,1.12054-.07361.07506-.09858.0064-.13413-.02911Q25.70709,6.201,23.964,4.457,22.91,3.40307,21.85492,2.35037c-.05819-.05787-.06787-.08938-.00337-.15243.34481-.33705.68241-.68145,1.026-1.01972a2.24721,2.24721,0,0,1,3.17778-.03981l.04491.04505q1.26732,1.25889,2.52639,2.52609A2.29555,2.29555,0,0,1,29.30263,5.417Z"/><path class="cls-1" d="M10.95593,14.99517a.77463.77463,0,0,1-.67695-.48971.80469.80469,0,0,1,.14083-.90775c.019-.02216.03966-.04294.06032-.06359Q15.70028,8.31473,20.92062,3.09554c.01807-.01807.0387-.03387.05507-.05331.04967-.05895.08795-.049.14067.00445q.51961.52643,1.04622,1.04592c.0476.047.053.07985.0046.12428-.02954.02713-.0556.058-.084.0864Q16.88675,9.49989,11.691,14.69716A.9401.9401,0,0,1,10.95593,14.99517Z"/><path class="cls-1" d="M14.75994,18.71214a.81447.81447,0,0,1,.22143-.56744c.02949-.0324.06066-.06331.09165-.09431q5.18489-5.18581,10.36987-10.37151c.15273-.15275.15279-.15277.30233-.00328.32043.32032.63929.64224.96264.95958.05824.05717.06518.09671.0031.14874-.02507.021-.04619.04673-.06944.07q-5.20089,5.201-10.40108,10.40264a.84049.84049,0,0,1-.95736.2326A.81793.81793,0,0,1,14.75994,18.71214Z"/></svg>