<svg id="Layer_1" data-name="Layer 1" xmlns="http://www.w3.org/2000/svg" viewBox="0 0 50 50"><defs><style>.cls-1{fill:#fff;}</style></defs><title>github</title><path class="cls-1" d="M30.992,43c0-1.076.021-2.152-.005-3.227a5.342,5.342,0,0,0-1.377-3.75c-.23-.238-.082-.302.145-.332a18.44006,18.44006,0,0,0,3.238-.632,9.983,9.983,0,0,0,5.355-3.532,10.599,10.599,0,0,0,1.682-4.124,15.64927,15.64927,0,0,0,.318-3.99,8.78006,8.78006,0,0,0-2.038-5.379,1.053,1.053,0,0,1-.226-1.157,8.218,8.218,0,0,0-.337-5.468.403.403,0,0,0-.427-.268,4.474,4.474,0,0,0-1.742.242,18.04655,18.04655,0,0,0-4.14,2.07.773.773,0,0,1-.7.123,21.67018,21.67018,0,0,0-5.244-.74,21.98264,21.98264,0,0,0-4.111.32,14.822,14.822,0,0,0-1.881.411.857.857,0,0,1-.772-.134,15.818,15.818,0,0,0-4.917-2.231c-.013-.003-.026-.008-.038-.01-1.143-.232-1.284-.127-1.601.984a8.0179,8.0179,0,0,0,.048,5.063.508.508,0,0,1-.16.562,8.99985,8.99985,0,0,0-2.065,4.31,11.64675,11.64675,0,0,0-.13,3.057,15.15577,15.15577,0,0,0,.852,4.146A8.456,8.456,0,0,0,14.863,34.1a14.468,14.468,0,0,0,5.17,1.53c.225.025.55-.031.637.194.068.178-.224.321-.351.483a4.81789,4.81789,0,0,0-.968,2.253.804.804,0,0,1-.585.691,6.701,6.701,0,0,1-3.29.384,4.116,4.116,0,0,1-2.575-1.543c-.371-.43-.622-.94-.96-1.392a4.906,4.906,0,0,0-3.184-2.058,1.98109,1.98109,0,0,0-.972.059c-.254.085-.341.218-.177.468a2.18991,2.18991,0,0,0,.736.754,6.21707,6.21707,0,0,1,2.452,2.942,6.74582,6.74582,0,0,0,1.324,2.252,5.043,5.043,0,0,0,2.822,1.264,12.75882,12.75882,0,0,0,3.874-.031c.297-.053.381.061.382.325.002,1.391.027,2.782.003,4.172a1.209,1.209,0,0,1-1.632,1.187,13.13989,13.13989,0,0,1-1.889-.669,23.83834,23.83834,0,0,1-4.877-2.78,24.806,24.806,0,0,1-5.754-6.09,23.31784,23.31784,0,0,1-3.3-7.356,25.26,25.26,0,0,1-.621-8.002,22.70194,22.70194,0,0,1,1.127-5.614A24.272,24.272,0,0,1,12.961,4.39a23.282,23.282,0,0,1,7.78-2.882,24.73915,24.73915,0,0,1,5.286-.367A23.5,23.5,0,0,1,36.449,3.957,23.91593,23.91593,0,0,1,46.457,14.063a23.07686,23.07686,0,0,1,2.49,7.79,26.20514,26.20514,0,0,1,.049,6.159,22.63194,22.63194,0,0,1-3.42,9.829,23.898,23.898,0,0,1-8.6,8.3,26.81919,26.81919,0,0,1-4.048,1.82,1.297,1.297,0,0,1-1.75979-.51728q-.01421-.026-.02722-.05272A2.21513,2.21513,0,0,1,31,46.503V43Z"/></svg>