<svg id="Layer_1" data-name="Layer 1" xmlns="http://www.w3.org/2000/svg" viewBox="0 0 24.86 24.86"><defs><style>.cls-1{fill:#fff;}</style></defs><title>slack</title><path class="cls-1" d="M5.522,15.645a2.521,2.521,0,1,1-2.52-2.52h2.52Zm1.271,0a2.521,2.521,0,0,1,5.042,0v6.313a2.521,2.521,0,1,1-5.042,0ZM9.314,5.522a2.521,2.521,0,1,1,2.521-2.52v2.52Zm0,1.271a2.521,2.521,0,1,1,0,5.042H3.002a2.521,2.521,0,1,1,0-5.042ZM19.436,9.314a2.522,2.522,0,1,1,2.522,2.521H19.436Zm-1.268,0a2.5215,2.5215,0,0,1-5.043,0V3.002a2.5215,2.5215,0,1,1,5.043,0ZM15.645,19.436a2.522,2.522,0,1,1-2.52,2.522V19.436Zm0-1.268a2.5215,2.5215,0,0,1,0-5.043h6.313a2.5215,2.5215,0,1,1,0,5.043Z"/></svg>