<svg id="Layer_1" data-name="Layer 1" xmlns="http://www.w3.org/2000/svg" viewBox="0 0 50 50"><defs><style>.cls-1{fill:#fff;}</style></defs><title>youtube</title><path class="cls-1" d="M48.229,13.666a6.072,6.072,0,0,0-4.287-4.287C40.162,8.366,25,8.366,25,8.366s-15.162,0-18.943,1.013a6.072,6.072,0,0,0-4.286,4.287C.758,17.446.758,25.336.758,25.336s0,7.888,1.013,11.67a6.072,6.072,0,0,0,4.286,4.286C9.838,42.305,25,42.305,25,42.305s15.161,0,18.943-1.013a6.072,6.072,0,0,0,4.286-4.287c1.013-3.78,1.013-11.67,1.013-11.67s0-7.888-1.013-11.67ZM20.152,32.608V18.063l12.596,7.273Z"/></svg>