<svg id="Layer_1" data-name="Layer 1" xmlns="http://www.w3.org/2000/svg" viewBox="0 0 600 184"><defs><style>.cls-1,.cls-2{fill:#fff;}.cls-1{opacity:0.9;isolation:isolate;}</style></defs><title>zowe-logo</title><polygon class="cls-1" points="429.814 121.792 431.921 124.801 430.365 120.274 429.814 121.792"/><path class="cls-2" d="M250.7438,119.91487h55.28656v15.11355h-76.595V123.1626L280.882,52.19537H232.14336V37.08181h71.02417V48.3122Z"/><path class="cls-2" d="M393.64165,98.36734c0,26.99761-18.09481,38.73134-36.99133,38.73134-18.89877,0-36.99359-11.73374-36.99359-38.73134,0-26.99533,18.09482-38.72907,36.99359-38.72907C375.54684,59.63827,393.64165,71.372,393.64165,98.36734Zm-56.84668,0c0,15.216,7.56134,23.88653,19.85535,23.88653,12.36688,0,19.85535-8.82081,19.85535-23.88653,0-15.06346-7.48847-23.88653-19.85535-23.88653C344.35631,74.48081,336.795,83.15357,336.795,98.36734Z"/><path class="cls-2" d="M479.46737,135.02842H468.385L451.59518,86.18266l-17.73954,48.84578H422.77328l-23.784-73.31991h16.635l14.21167,51.02535,16.97885-51.02534h10.98669l16.47779,51.6266L489.4634,61.70853h16.25Z"/><path class="cls-2" d="M579.36126,94.32476a52.92387,52.92387,0,0,1-.87683,9.87073H528.1765c1.99964,13.98163,10.06885,19.16753,20.90528,19.16753a32.441,32.441,0,0,0,20.87335-7.43607l6.98285,10.92066c-7.58185,6.41575-17.2453,10.25107-30.36377,10.25107-19.18347,0-35.35153-12.35778-35.35153-38.376,0-23.87286,14.09549-39.08436,34.80264-39.08436,22.51544,0,33.33594,17.02439,33.33594,34.68421Zm-15.44153-1.44394c-.50336-12.19152-7.04663-19.96011-17.48444-19.96011-10.3012,0-17.3045,6.311-18.5412,19.96012Z"/><path class="cls-2" d="M172.07673,105.11677,96.344,158.14541a5.57524,5.57524,0,0,1-8.75644-4.99577L96.02639,43.80251l-61.883,43.33092,50.63036,72.30764a5.575,5.575,0,1,1-9.13359,6.39541h0L21.81213,88.962a5.57529,5.57529,0,0,1,1.36909-7.7645L99.29454,27.90241a5.57524,5.57524,0,0,1,8.75644,4.99577L99.61213,142.24531l61.883-43.33091L111.13119,26.98732a5.575,5.575,0,1,1,9.13359-6.39542l53.29513,76.1133a6.42934,6.42934,0,0,1-1.48318,8.41155Z"/></svg>