<svg id="Layer_1" data-name="Layer 1" xmlns="http://www.w3.org/2000/svg" viewBox="0 0 792 353.85975"><defs><style>.cls-1{fill:none;}.cls-2{fill:#fff;}</style></defs><title>zowe-logo-white</title><path class="cls-1" d="M519.213,99.19252a2.14905,2.14905,0,0,0,.86615-1.92254v-.06147a2.15328,2.15328,0,0,0-.98279-2.03918,6.28255,6.28255,0,0,0-3.1388-.59582h-1.34515v5.14111h1.36975A7.193,7.193,0,0,0,519.213,99.19252Z"/><path class="cls-1" d="M641.45332,98.996a3.61962,3.61962,0,0,0,.42377-5.09814l-.44226-.44226a6.1536,6.1536,0,0,0-3.753-1.00123h-3.13867v7.52442h3.1756A6.18859,6.18859,0,0,0,641.45332,98.996Z"/><path class="cls-1" d="M625.12947,99.13112a3.84747,3.84747,0,0,0,.27637-5.436.34949.34949,0,0,1-.043-.04914l-.19043-.20886a5.32882,5.32882,0,0,0-3.50726-1.038l-3.75293.05523v7.69642h3.5625A5.57806,5.57806,0,0,0,625.12947,99.13112Z"/><path class="cls-1" d="M459.05922,180.7939c-14.6416,0-23.39258,11.27539-23.39258,24.57032v.33593c0,13.29492,9.59277,24.90723,23.72949,24.90723,14.64063,0,23.3916-11.27539,23.3916-24.57031v-.33692C482.78773,192.40572,473.195,180.7939,459.05922,180.7939Z"/><polygon class="cls-1" points="542.173 96.056 539.034 103.753 545.293 103.753 542.173 96.056"/><path class="cls-1" d="M337.5132,100.3835a4.34637,4.34637,0,0,0,.2334-6.13617.89486.89486,0,0,0-.215-.215,5.73764,5.73764,0,0,0-3.84509-1.17316h-4.25659v8.66071h4.00476A6.42478,6.42478,0,0,0,337.5132,100.3835Z"/><path class="cls-1" d="M703.58461,179.27925c-10.60254,0-17.50195,7.57276-19.52148,19.18506h38.53808C721.08656,187.02047,714.35512,179.27925,703.58461,179.27925Z"/><polygon class="cls-1" points="432.634 96.056 429.483 103.753 435.754 103.753 432.634 96.056"/><path class="cls-1" d="M305.56508,108.98769a9.78609,9.78609,0,0,0,13.56842,0,9.62193,9.62193,0,0,0,0-13.47009,9.78981,9.78981,0,0,0-13.56842,0,9.50152,9.50152,0,0,0-.02454,13.44549Z"/><path class="cls-1" d="M666.4341,106.85323a8.58683,8.58683,0,0,0,0-12.05121,8.71125,8.71125,0,0,0-12.14344,0,8.508,8.508,0,0,0,0,12.03278,8.30708,8.30708,0,0,0,6.08094,2.44464v.01843A8.24148,8.24148,0,0,0,666.4341,106.85323Z"/><polygon class="cls-2" points="203.419 168.058 203.421 168.059 203.42 168.057 203.419 168.058"/><path class="cls-2" d="M617.91225,101.44063h3.65466a7.147,7.147,0,0,0,4.791-1.382,4.675,4.675,0,0,0,1.62158-3.75293,4.52389,4.52389,0,0,0-1.62158-3.71612,6.88636,6.88636,0,0,0-4.63135-1.36975H616.4319V110.433h1.48035Zm0-8.98627,3.75293-.05523a5.32882,5.32882,0,0,1,3.50726,1.038l.19043.20886a.34949.34949,0,0,0,.043.04914,3.84747,3.84747,0,0,1-.27637,5.436,5.57806,5.57806,0,0,1-3.65472,1.01966h-3.5625Z"/><path class="cls-2" d="M634.48787,101.25026h2.6535a4.84484,4.84484,0,0,1,2.73334.65717,12.5101,12.5101,0,0,1,2.59814,3.2923l3.3476,5.23327h1.77515l-4.34876-6.63989a8.891,8.891,0,0,0-2.56134-2.9483,4.77219,4.77219,0,0,0,3.65466-4.65589,4.4348,4.4348,0,0,0-1.63385-3.6178,7.28589,7.28589,0,0,0-4.73571-1.35131h-4.90778l-.05524,19.25006h1.48029Zm.0553-8.7959h3.13867a6.1536,6.1536,0,0,1,3.753,1.00123l.44226.44226a3.61962,3.61962,0,0,1-.42377,5.09814,6.18859,6.18859,0,0,1-3.73455.98279h-3.1756Z"/><path class="cls-2" d="M667.58876,107.81142l.23346-.24573c.03687-.043.07367-.07983.11053-.11664a9.627,9.627,0,0,0-.344-13.61145,10.507,10.507,0,0,0-14.416,0l-.19036.1966-.01227.00616a9.74548,9.74548,0,0,0,.20263,13.77106A10.49864,10.49864,0,0,0,667.58876,107.81142Zm-13.2981-.97662a8.508,8.508,0,0,1,0-12.03278,8.71125,8.71125,0,0,1,12.14344,0,8.58683,8.58683,0,0,1,0,12.05121,8.24148,8.24148,0,0,1-6.0625,2.44464v-.01843A8.30708,8.30708,0,0,1,654.29066,106.8348Z"/><path class="cls-2" d="M673.999,116.03664a3.85016,3.85016,0,0,0,2.83166-1.21619,6.22842,6.22842,0,0,0,1.19165-4.34875V91.22164h-1.4804v19.67389c0,2.57977-.88447,3.85119-2.69642,3.85119a4.61552,4.61552,0,0,1-.86615-.09826l.1352,1.38818Q673.55681,116.055,673.999,116.03664Z"/><polygon class="cls-2" points="695.266 109.182 686.071 109.182 686.071 101.387 694.824 101.387 694.824 100.134 686.071 100.134 686.071 92.456 695.057 92.456 695.057 91.222 684.585 91.222 684.585 110.429 695.266 110.429 695.266 109.182"/><path class="cls-2" d="M716.59486,92.5895v.00335c.02613.01252.05371.02088.07978.03351Z"/><path class="cls-2" d="M709.99178,110.70327a14.27152,14.27152,0,0,0,6.79345-1.79358V107.3741a14.51014,14.51014,0,0,1-6.83026,1.92255,8.47383,8.47383,0,0,1-6.1792-2.37091,8.14418,8.14418,0,0,1-2.40777-6.1178,8.24465,8.24465,0,0,1,2.40777-6.08087,8.06919,8.06919,0,0,1,5.96417-2.44464,14.69808,14.69808,0,0,1,6.85492,1.92248V92.59285a16.136,16.136,0,0,0-6.67675-1.58191,10.02024,10.02024,0,0,0-7.10663,2.83161.70472.70472,0,0,1-.1352.13513.006.006,0,0,1-.00616.00616,9.83527,9.83527,0,0,0,.00616,13.90619A10.06887,10.06887,0,0,0,709.99178,110.70327Z"/><polygon class="cls-2" points="727.005 110.429 728.51 110.429 728.51 92.456 735.709 92.456 735.709 91.222 719.788 91.222 719.788 92.456 727.005 92.456 727.005 110.429"/><polygon class="cls-2" points="416.797 111.778 416.797 90.495 410.961 90.495 404.401 98.48 397.86 90.495 392.043 90.495 392.043 111.778 398.277 111.778 398.277 99.444 404.076 106.582 404.592 106.582 410.365 99.444 410.365 111.778 416.797 111.778"/><path class="cls-2" d="M427.97792,107.46871h9.2381l1.75055,4.31195h6.56616L436.2394,90.49135H429.059l-9.4162,21.28931H426.209Zm4.656-11.41242,3.1203,7.69629H429.4828Z"/><rect class="cls-2" x="448.38277" y="90.49556" width="6.40649" height="21.28314"/><polygon class="cls-2" points="466.532 99.923 477.576 111.778 483.276 111.778 483.276 90.495 476.882 90.495 476.882 102.288 465.875 90.495 460.181 90.495 460.181 111.778 466.532 111.778 466.532 99.923"/><polygon class="cls-2" points="495.039 103.156 503.871 103.156 503.871 98.887 495.039 98.887 495.039 94.765 503.871 94.765 503.871 90.49 488.626 90.49 488.626 111.779 495.039 111.779 495.039 103.156"/><path class="cls-2" d="M517.13692,103.67641a3.57114,3.57114,0,0,1,1.43731,1.22846,16.49,16.49,0,0,1,1.65839,3.02813l1.67072,3.8451h6.89172l-2.09454-4.65583a16.98522,16.98522,0,0,0-1.88575-3.2923,5.90789,5.90789,0,0,0-1.69525-1.425,14.59879,14.59879,0,0,0,1.56012-.96436,4.99213,4.99213,0,0,0,1.30835-1.61542,5.41331,5.41331,0,0,0,.61426-2.73333,6.72647,6.72647,0,0,0-.731-2.92371,6.46362,6.46362,0,0,0-2.44464-2.59827,7.86822,7.86822,0,0,0-4.33032-1.07489H508.18141v21.22791h6.431v-8.31671h.71253A5.21428,5.21428,0,0,1,517.13692,103.67641Zm-2.52454-9.1029h1.34515a6.28255,6.28255,0,0,1,3.1388.59582,2.15328,2.15328,0,0,1,.98279,2.03918V97.27a2.14905,2.14905,0,0,1-.86615,1.92254,7.193,7.193,0,0,1-3.23084.5221h-1.36975Z"/><path class="cls-2" d="M537.5356,107.46871h9.238l1.73211,4.31195h6.56616l-9.37933-21.28931h-7.10052l-9.41,21.28931h6.5846Zm4.63745-11.41242,3.1203,7.69629h-6.259Z"/><polygon class="cls-2" points="564.132 99.444 569.949 106.582 570.446 106.582 576.245 99.444 576.245 111.778 582.651 111.778 582.651 90.495 576.84 90.495 570.256 98.48 563.733 90.495 557.897 90.495 557.897 111.778 564.132 111.778 564.132 99.444"/><polygon class="cls-2" points="604.074 107.485 594.449 107.485 594.449 102.945 603.38 102.945 603.38 98.652 594.449 98.652 594.449 94.764 603.804 94.764 603.804 90.495 588.024 90.495 588.024 111.778 604.074 111.778 604.074 107.485"/><path class="cls-2" d="M320.42336,110.06258l.27026-.2641a.18838.18838,0,0,1,.04913-.04919,10.857,10.857,0,0,0-.31939-15.34967,11.03137,11.03137,0,0,0-8.06482-3.194v.05529a11.08047,11.08047,0,0,0-8.02808,3.194l-.2088.215a10.89086,10.89086,0,0,0,.2088,15.39264A11.73651,11.73651,0,0,0,320.42336,110.06258Zm-14.85828-14.545a9.78981,9.78981,0,0,1,13.56842,0,9.62193,9.62193,0,0,1,0,13.47009,9.78609,9.78609,0,0,1-13.56842,0l-.02454-.0246A9.50152,9.50152,0,0,1,305.56508,95.5176Z"/><path class="cls-2" d="M329.33162,102.908h4.103a8.05237,8.05237,0,0,0,5.3316-1.56012,5.61271,5.61271,0,0,0,.11664-8.35358,7.96044,7.96044,0,0,0-5.19641-1.52331h-5.915l-.0921,21.42443h1.65228Zm.09827-10.04883h4.25659a5.73764,5.73764,0,0,1,3.84509,1.17316.89486.89486,0,0,1,.215.215,4.34637,4.34637,0,0,1-.2334,6.13617,6.42478,6.42478,0,0,1-4.07855,1.13636h-4.00476Z"/><polygon class="cls-2" points="355.82 111.547 345.519 111.547 345.519 102.831 355.304 102.831 355.304 101.443 345.519 101.443 345.519 92.862 355.568 92.862 355.568 91.474 343.867 91.474 343.867 112.935 355.82 112.935 355.82 111.547"/><polygon class="cls-2" points="360.885 94.164 377.181 112.935 378.551 112.935 378.551 91.474 376.892 91.474 376.892 110.22 360.633 91.474 359.227 91.474 359.227 112.935 360.885 112.935 360.885 94.164"/><polygon class="cls-2" points="301.035 155.55 363.807 155.55 299.015 230.944 299.015 250.634 397.128 250.634 397.128 227.915 332.337 227.915 397.128 152.521 397.128 132.832 301.035 132.832 301.035 155.55"/><path class="cls-2" d="M459.39613,158.748c-28.10449,0-48.97265,21.03614-48.97265,46.95215v.33692c0,25.917,20.69922,46.61621,48.63574,46.61621,28.10449,0,48.97168-21.03613,48.97168-46.95313v-.33593C508.0309,179.44722,487.33168,158.748,459.39613,158.748Zm23.3916,47.28907c0,13.29492-8.751,24.57031-23.3916,24.57031-14.13672,0-23.72949-11.61231-23.72949-24.90723v-.33593c0-13.29493,8.751-24.57032,23.39258-24.57032,14.13574,0,23.72851,11.61182,23.72851,24.90625Z"/><polygon class="cls-2" points="611.697 215.293 594.532 160.094 572.486 160.094 555.489 215.125 541.016 160.431 515.099 160.431 542.867 251.307 565.755 251.307 583.424 195.94 600.758 251.307 623.814 251.307 651.919 160.431 626.506 160.431 611.697 215.293"/><path class="cls-2" d="M747.50844,207.71968c0-25.57959-13.79981-48.97168-43.92383-48.97168-26.25293,0-44.59668,21.20411-44.59668,46.95215v.33692c0,27.59961,20.02637,46.61621,47.12109,46.61621,16.32422,0,28.44043-6.39551,36.85547-16.8291l-14.6416-12.958c-7.06836,6.56348-13.29492,9.25586-21.877,9.25586-11.44434,0-19.52246-6.0586-22.0459-17.6709h62.77148C747.33949,212.09566,747.50844,209.73922,747.50844,207.71968Zm-63.44531-9.25537c2.01953-11.6123,8.91894-19.18506,19.52148-19.18506,10.77051,0,17.50195,7.74122,19.0166,19.18506Z"/><polygon class="cls-2" points="181.954 55.777 181.953 55.784 29.202 156.633 81.719 155.81 153.204 105.713 167.881 135.677 164.529 154.712 250.498 184.209 203.421 168.059 216.405 187.184 139.675 241.691 132.917 231.952 137.432 193.284 137.471 193.298 143.275 143.239 143.275 143.239 143.275 143.238 94.075 176.677 81.723 155.811 29.2 156.634 125.788 293.012 126.142 289.976 125.787 294.202 271.507 191.417 271.51 191.418 181.954 55.777"/><polygon class="cls-2" points="159.152 198.91 203.419 168.058 164.527 154.716 159.152 198.91"/></svg>
