<svg id="Layer_1" data-name="Layer 1" xmlns="http://www.w3.org/2000/svg" viewBox="0 0 792 353.85974"><defs><style>.cls-1{fill:#fff;}</style></defs><title>zowe-logo</title><polygon class="cls-1" points="195.763 168.458 195.766 168.459 195.764 168.457 195.763 168.458"/><path class="cls-1" d="M645.28792,96.21061h3.96354a7.75114,7.75114,0,0,0,5.19593-1.4988,5.07022,5.07022,0,0,0,1.75863-4.07012,4.90615,4.90615,0,0,0-1.75863-4.03019,7.46842,7.46842,0,0,0-5.02277-1.48551h-5.74216v20.837h1.60546Zm0-9.74575,4.07011-.0599a5.77919,5.77919,0,0,1,3.80368,1.12573l.20653.22652a.37525.37525,0,0,0,.04666.05329,4.1726,4.1726,0,0,1-.2976,5.8935l-.00212.00193a6.04953,6.04953,0,0,1-3.96361,1.10584H645.288Z"/><path class="cls-1" d="M663.26445,96.00415h2.87776a5.25429,5.25429,0,0,1,2.96435.71272,13.5671,13.5671,0,0,1,2.81773,3.57055l3.63052,5.67556H677.48l-4.7163-7.20107a9.64192,9.64192,0,0,0-2.77781-3.19748,5.17554,5.17554,0,0,0,3.96354-5.04939,4.80956,4.80956,0,0,0-1.77194-3.92356,7.9017,7.9017,0,0,0-5.136-1.46552H661.719l-.05991,20.877h1.6054Zm.06-9.53929h3.40394a6.67374,6.67374,0,0,1,4.07018,1.08585l.47963.47964a3.92556,3.92556,0,0,1-.45958,5.529,6.71155,6.71155,0,0,1-4.05019,1.06585h-3.444Z"/><path class="cls-1" d="M699.16289,103.11983l.25319-.26649c.04-.04664.0799-.08658.11988-.1265a10.44069,10.44069,0,0,0-.37174-14.76061l-.00133-.00122a11.395,11.395,0,0,0-15.6344,0l-.20646.21321-.0133.00668a10.56913,10.56913,0,0,0,.21976,14.93493A11.38594,11.38594,0,0,0,699.16289,103.11983Zm-14.422-1.05916a9.22708,9.22708,0,0,1-.00072-13.049l.00072-.0007a9.4475,9.4475,0,0,1,13.16975,0,9.31255,9.31255,0,0,1,0,13.06973,8.938,8.938,0,0,1-6.57488,2.65125v-.02A9.00914,9.00914,0,0,1,684.74089,102.06067Z"/><path class="cls-1" d="M706.11494,112.04021a4.17561,4.17561,0,0,0,3.071-1.319,6.7549,6.7549,0,0,0,1.29236-4.71628V85.128h-1.60553V106.4646c0,2.79781-.95921,4.17668-2.9243,4.17668a5.00607,5.00607,0,0,1-.93935-.10656l.14662,1.5055Q705.6354,112.06013,706.11494,112.04021Z"/><polygon class="cls-1" points="729.179 104.606 719.207 104.606 719.207 96.152 728.7 96.152 728.7 94.794 719.207 94.794 719.207 86.467 728.953 86.467 728.953 85.128 717.596 85.128 717.596 105.959 729.179 105.959 729.179 104.606"/><path class="cls-1" d="M752.31079,86.61142v.00363c.02833.01358.05825.02265.08652.03634Z"/><path class="cls-1" d="M745.14964,106.25609a15.47754,15.47754,0,0,0,7.36761-1.94516v-1.66537a15.73674,15.73674,0,0,1-7.40753,2.085,9.1901,9.1901,0,0,1-6.70144-2.57129,8.83237,8.83237,0,0,1-2.61127-6.63485,8.94139,8.94139,0,0,1,2.61127-6.5948,8.75117,8.75117,0,0,1,6.46824-2.65126,15.94024,15.94024,0,0,1,7.43427,2.085v-1.7483a17.49983,17.49983,0,0,0-7.241-1.7156,10.86711,10.86711,0,0,0-7.70725,3.07093.76483.76483,0,0,1-.14662.14655l-.00635.00668h-.00033a10.66649,10.66649,0,0,0,.00668,15.08148A10.91978,10.91978,0,0,0,745.14964,106.25609Z"/><polygon class="cls-1" points="763.601 105.959 765.233 105.959 765.233 86.467 773.04 86.467 773.04 85.128 755.774 85.128 755.774 86.467 763.601 86.467 763.601 105.959"/><polygon class="cls-1" points="427.175 107.422 427.175 84.34 420.846 84.34 413.732 93 406.638 84.34 400.329 84.34 400.329 107.422 407.09 107.422 407.09 94.045 413.379 101.787 413.939 101.787 420.2 94.045 420.2 107.422 427.175 107.422"/><path class="cls-1" d="M439.30111,102.74816H449.32l1.8985,4.67638h7.12111l-10.07874-23.0886h-7.78728l-10.212,23.0886h7.12117Zm5.04951-12.37695,3.384,8.34675h-6.80146Z"/><rect class="cls-1" x="461.43052" y="84.34051" width="6.94795" height="23.08191"/><polygon class="cls-1" points="481.114 94.565 493.091 107.422 499.273 107.422 499.273 84.34 492.338 84.34 492.338 97.13 480.401 84.34 474.226 84.34 474.226 107.422 481.114 107.422 481.114 94.565"/><polygon class="cls-1" points="512.03 98.071 521.608 98.071 521.608 93.441 512.03 93.441 512.03 88.971 521.608 88.971 521.608 84.334 505.075 84.334 505.075 107.423 512.03 107.423 512.03 98.071"/><path class="cls-1" d="M535.99547,98.63535a3.87322,3.87322,0,0,1,1.55879,1.33229,17.88353,17.88353,0,0,1,1.79854,3.284l1.81192,4.17007h7.47419l-2.27157-5.04932a18.42059,18.42059,0,0,0-2.04512-3.57055,6.40751,6.40751,0,0,0-1.83852-1.54544,15.83422,15.83422,0,0,0,1.692-1.04586,5.41454,5.41454,0,0,0,1.41893-1.75195,5.871,5.871,0,0,0,.66617-2.96434,7.295,7.295,0,0,0-.7928-3.17081,7.01006,7.01006,0,0,0-2.65125-2.81787,8.53329,8.53329,0,0,0-4.69631-1.16573H526.28308v23.022h6.97455V98.34229h.77275A5.65543,5.65543,0,0,1,535.99547,98.63535Zm-2.7379-9.87224h1.45884a6.81357,6.81357,0,0,1,3.40407.64617,2.33525,2.33525,0,0,1,1.06585,2.21152v.06669a2.33073,2.33073,0,0,1-.93936,2.085,7.80088,7.80088,0,0,1-3.50389.56623h-1.48551Z"/><path class="cls-1" d="M558.11816,102.74816h10.01873l1.87851,4.67638h7.12111l-10.172-23.0886h-7.70063l-10.20527,23.0886h7.1411Zm5.02939-12.37695,3.384,8.34675h-6.788Z"/><polygon class="cls-1" points="586.962 94.045 593.271 101.787 593.81 101.787 600.099 94.045 600.099 107.422 607.047 107.422 607.047 84.34 600.744 84.34 593.604 93 586.53 84.34 580.2 84.34 580.2 107.422 586.962 107.422 586.962 94.045"/><polygon class="cls-1" points="630.28 102.766 619.842 102.766 619.842 97.842 629.527 97.842 629.527 93.186 619.842 93.186 619.842 88.97 629.987 88.97 629.987 84.34 612.874 84.34 612.874 107.422 630.28 107.422 630.28 102.766"/><path class="cls-1" d="M322.6565,105.56125l.2931-.28642a.20432.20432,0,0,1,.05329-.05334,11.7746,11.7746,0,0,0-.34639-16.647,11.96374,11.96374,0,0,0-8.74643-3.46395v.06a12.01692,12.01692,0,0,0-8.70657,3.46395l-.22645.23317a11.81129,11.81129,0,0,0,.22645,16.69356A12.72844,12.72844,0,0,0,322.6565,105.56125ZM306.54246,89.787a10.61722,10.61722,0,0,1,14.71517,0,10.43513,10.43513,0,0,1,0,14.60853,10.61317,10.61317,0,0,1-14.71517,0l-.02661-.02668a10.30454,10.30454,0,0,1,.01758-14.57282l.009-.009Z"/><path class="cls-1" d="M332.31765,97.802h4.44977a8.733,8.733,0,0,0,5.78221-1.692,6.08712,6.08712,0,0,0,.1265-9.05959,8.63328,8.63328,0,0,0-5.6356-1.65206h-6.41492l-.09988,23.23514h1.79192Zm.10658-10.89812h4.61634a6.22254,6.22254,0,0,1,4.17006,1.27231.97.97,0,0,1,.23317.23317,4.71372,4.71372,0,0,1-.25313,6.65477,6.9678,6.9678,0,0,1-4.42325,1.2324h-4.34323Z"/><polygon class="cls-1" points="361.045 107.171 349.873 107.171 349.873 97.718 360.485 97.718 360.485 96.213 349.873 96.213 349.873 86.907 360.771 86.907 360.771 85.402 348.081 85.402 348.081 108.676 361.045 108.676 361.045 107.171"/><polygon class="cls-1" points="366.538 88.319 384.211 108.676 385.697 108.676 385.697 85.402 383.898 85.402 383.898 105.732 366.264 85.402 364.74 85.402 364.74 108.676 366.538 108.676 366.538 88.319"/><polygon class="cls-1" points="301.63 154.893 369.707 154.893 299.439 236.659 299.439 258.013 405.844 258.013 405.844 233.374 335.577 233.374 405.844 151.608 405.844 130.255 301.63 130.255 301.63 154.893"/><path class="cls-1" d="M473.37466,158.36137c-30.47977,0-53.11162,22.814-53.11162,50.92036v.36539c0,28.1074,22.44863,50.556,52.74623,50.556,30.47978,0,53.11057-22.814,53.11057-50.92141v-.36433C526.11988,180.81,503.67121,158.36137,473.37466,158.36137Zm25.36857,51.28576c0,14.41856-9.49061,26.6469-25.36857,26.6469-15.33149,0-25.735-12.59373-25.735-27.01229v-.36433c0-14.41857,9.49061-26.64689,25.36962-26.64689,15.33044,0,25.734,12.5932,25.734,27.01122Z"/><polygon class="cls-1" points="638.547 219.685 619.932 159.821 596.022 159.821 577.589 219.503 561.893 160.187 533.785 160.187 563.9 258.743 588.723 258.743 607.885 198.697 626.684 258.743 651.689 258.743 682.169 160.187 654.608 160.187 638.547 219.685"/><path class="cls-1" d="M785.83706,211.47194c0-27.74147-14.96611-53.11057-47.6361-53.11057-28.47172,0-48.36581,22.99621-48.36581,50.92036v.36539c0,29.93221,21.71892,50.556,51.10358,50.556,17.70388,0,30.8441-6.936,39.97035-18.25143L765.03,227.89856c-7.66575,7.1182-14.41856,10.03813-23.726,10.03813-12.41156,0-21.17242-6.57064-23.90912-19.16437H785.4716C785.65383,216.21776,785.83706,213.66217,785.83706,211.47194Zm-68.80746-10.0376c2.19022-12.59373,9.67274-20.8065,21.17136-20.8065,11.68079,0,18.98115,8.39548,20.62381,20.8065Z"/><path class="cls-1" d="M172.49966,46.63053Q89.51333,101.42016,6.78384,156.04028c.20262.31409.31224.499.436.67378q51.82553,73.17425,103.641,146.35551a14.84043,14.84043,0,0,1,1.00171,2.04346Q190.66345,249.52938,269.668,193.80214,220.99889,120.08766,172.49966,46.63053ZM123.4359,243.63288c-.84165-1.20942-1.58957-2.49722-2.53641-3.61728a5.94856,5.94856,0,0,1-1.29911-4.99438c1.699-13.63164,3.29915-27.2758,4.89495-40.92015,1.44468-12.35252,2.83884-24.711,4.26552-37.0657.55675-4.82115,1.14329-9.63885,1.70931-14.45887.03323-.28324.00431-.5737.00431-1.04692l-53.27791,36.2073c-4.448-7.50893-8.86915-14.97272-13.35714-22.54931q38.70936-27.12772,77.43844-54.26915c1.31831,2.67415,2.58075,5.21863,3.8291,7.77007,3.844,7.85684,7.699,15.70847,11.49432,23.58875a4.13233,4.13233,0,0,1,.31958,2.32975c-1.013,6.06684-2.10833,12.12-3.17133,18.17855-.06474.369-.07129.75116-.11081,1.22173l-.05435-.01866-5.82927,47.92906,47.75372-33.28207a3.90343,3.90343,0,0,1,.88156.88871c4.23262,6.13621,8.40348,12.31492,12.59076,18.48238.24193.35639.47441.71919.78644,1.19321q-41.54121,29.51079-83.11162,59.04217C125.55688,246.66944,124.49374,245.153,123.4359,243.63288Z"/></svg>