<?xml version="1.0" encoding="UTF-8" standalone="no"?>
<svg
   id="Layer_1"
   data-name="Layer 1"
   viewBox="0 0 1200 353.85998"
   version="1.1"
   sodipodi:docname="zowe-logo.svg"
   width="1200"
   height="353.85999"
   inkscape:version="1.2.2 (b0a8486, 2022-12-01)"
   xmlns:inkscape="http://www.inkscape.org/namespaces/inkscape"
   xmlns:sodipodi="http://sodipodi.sourceforge.net/DTD/sodipodi-0.dtd"
   xmlns="http://www.w3.org/2000/svg"
   xmlns:svg="http://www.w3.org/2000/svg"
   xmlns:rdf="http://www.w3.org/1999/02/22-rdf-syntax-ns#"
   xmlns:cc="http://creativecommons.org/ns#"
   xmlns:dc="http://purl.org/dc/elements/1.1/">
  <sodipodi:namedview
     id="namedview63"
     pagecolor="#ffffff"
     bordercolor="#000000"
     borderopacity="0.25"
     inkscape:showpageshadow="2"
     inkscape:pageopacity="0"
     inkscape:pagecheckerboard="0"
     inkscape:deskcolor="#d1d1d1"
     showgrid="false"
     inkscape:zoom="1.5732323"
     inkscape:cx="638.17657"
     inkscape:cy="235.18459"
     inkscape:window-width="2560"
     inkscape:window-height="1302"
     inkscape:window-x="0"
     inkscape:window-y="25"
     inkscape:window-maximized="1"
     inkscape:current-layer="Layer_1" />
  <defs
     id="defs4">
    <rect
       x="814.24719"
       y="194.50401"
       width="312.73193"
       height="115.68539"
       id="rect674" />
    <rect
       x="813.61156"
       y="133.48315"
       width="275.22954"
       height="101.06581"
       id="rect668" />
    <rect
       x="809.16212"
       y="33.05297"
       width="225.65009"
       height="91.531295"
       id="rect504" />
    <style
       id="style2">.cls-1{fill:#fff;}</style>
  </defs>
  <title
     id="title6">zowe-logo</title>
  <polygon
     class="cls-1"
     points="195.763,168.458 195.766,168.459 195.764,168.457 "
     id="polygon8" />
  <path
     class="cls-1"
     d="m 645.28792,96.21061 h 3.96354 a 7.75114,7.75114 0 0 0 5.19593,-1.4988 5.07022,5.07022 0 0 0 1.75863,-4.07012 4.90615,4.90615 0 0 0 -1.75863,-4.03019 7.46842,7.46842 0 0 0 -5.02277,-1.48551 h -5.74216 v 20.837 h 1.60546 z m 0,-9.74575 4.07011,-0.0599 a 5.77919,5.77919 0 0 1 3.80368,1.12573 l 0.20653,0.22652 a 0.37525,0.37525 0 0 0 0.0467,0.05329 4.1726,4.1726 0 0 1 -0.2976,5.8935 l -0.002,0.0019 a 6.04953,6.04953 0 0 1 -3.96361,1.10584 H 645.288 Z"
     id="path10" />
  <path
     class="cls-1"
     d="m 663.26445,96.00415 h 2.87776 a 5.25429,5.25429 0 0 1 2.96435,0.71272 13.5671,13.5671 0 0 1 2.81773,3.57055 l 3.63052,5.67556 H 677.48 l -4.7163,-7.20107 a 9.64192,9.64192 0 0 0 -2.77781,-3.19748 5.17554,5.17554 0 0 0 3.96354,-5.04939 4.80956,4.80956 0 0 0 -1.77194,-3.92356 7.9017,7.9017 0 0 0 -5.136,-1.46552 H 661.719 l -0.0599,20.877 h 1.6054 z m 0.06,-9.53929 h 3.40394 a 6.67374,6.67374 0 0 1 4.07018,1.08585 l 0.47963,0.47964 a 3.92556,3.92556 0 0 1 -0.45958,5.529 6.71155,6.71155 0 0 1 -4.05019,1.06585 h -3.444 z"
     id="path12" />
  <path
     class="cls-1"
     d="m 699.16289,103.11983 0.25319,-0.26649 c 0.04,-0.0466 0.0799,-0.0866 0.11988,-0.1265 a 10.44069,10.44069 0 0 0 -0.37174,-14.76061 l -10e-4,-0.0012 a 11.395,11.395 0 0 0 -15.6344,0 l -0.20646,0.21321 -0.0133,0.0067 a 10.56913,10.56913 0 0 0 0.21976,14.93493 11.38594,11.38594 0 0 0 15.6344,0 z m -14.422,-1.05916 a 9.22708,9.22708 0 0 1 -7.2e-4,-13.049 l 7.2e-4,-7e-4 a 9.4475,9.4475 0 0 1 13.16975,0 9.31255,9.31255 0 0 1 0,13.06973 8.938,8.938 0 0 1 -6.57488,2.65125 v -0.02 a 9.00914,9.00914 0 0 1 -6.59487,-2.65128 z"
     id="path14" />
  <path
     class="cls-1"
     d="m 706.11494,112.04021 a 4.17561,4.17561 0 0 0 3.071,-1.319 6.7549,6.7549 0 0 0 1.29236,-4.71628 V 85.128 h -1.60553 v 21.3366 c 0,2.79781 -0.95921,4.17668 -2.9243,4.17668 a 5.00607,5.00607 0 0 1 -0.93935,-0.10656 l 0.14662,1.5055 q 0.47966,0.0199 0.9592,-1e-5 z"
     id="path16" />
  <polygon
     class="cls-1"
     points="717.596,85.128 717.596,105.959 729.179,105.959 729.179,104.606 719.207,104.606 719.207,96.152 728.7,96.152 728.7,94.794 719.207,94.794 719.207,86.467 728.953,86.467 728.953,85.128 "
     id="polygon18" />
  <path
     class="cls-1"
     d="m 752.31079,86.61142 v 0.0036 c 0.0283,0.01358 0.0583,0.02265 0.0865,0.03634 z"
     id="path20" />
  <path
     class="cls-1"
     d="m 745.14964,106.25609 a 15.47754,15.47754 0 0 0 7.36761,-1.94516 v -1.66537 a 15.73674,15.73674 0 0 1 -7.40753,2.085 9.1901,9.1901 0 0 1 -6.70144,-2.57129 8.83237,8.83237 0 0 1 -2.61127,-6.63485 8.94139,8.94139 0 0 1 2.61127,-6.5948 8.75117,8.75117 0 0 1 6.46824,-2.65126 15.94024,15.94024 0 0 1 7.43427,2.085 v -1.7483 a 17.49983,17.49983 0 0 0 -7.241,-1.7156 10.86711,10.86711 0 0 0 -7.70725,3.07093 0.76483,0.76483 0 0 1 -0.14662,0.14655 l -0.006,0.0067 h -3.3e-4 a 10.66649,10.66649 0 0 0 0.007,15.08148 10.91978,10.91978 0 0 0 7.93372,3.05099 z"
     id="path22" />
  <polygon
     class="cls-1"
     points="765.233,105.959 765.233,86.467 773.04,86.467 773.04,85.128 755.774,85.128 755.774,86.467 763.601,86.467 763.601,105.959 "
     id="polygon24" />
  <polygon
     class="cls-1"
     points="413.379,101.787 413.939,101.787 420.2,94.045 420.2,107.422 427.175,107.422 427.175,84.34 420.846,84.34 413.732,93 406.638,84.34 400.329,84.34 400.329,107.422 407.09,107.422 407.09,94.045 "
     id="polygon26" />
  <path
     class="cls-1"
     d="M 439.30111,102.74816 H 449.32 l 1.8985,4.67638 h 7.12111 l -10.07874,-23.0886 h -7.78728 l -10.212,23.0886 h 7.12117 z m 5.04951,-12.37695 3.384,8.34675 h -6.80146 z"
     id="path28" />
  <rect
     class="cls-1"
     x="461.43051"
     y="84.340508"
     width="6.9479499"
     height="23.081909"
     id="rect30" />
  <polygon
     class="cls-1"
     points="481.114,107.422 481.114,94.565 493.091,107.422 499.273,107.422 499.273,84.34 492.338,84.34 492.338,97.13 480.401,84.34 474.226,84.34 474.226,107.422 "
     id="polygon32" />
  <polygon
     class="cls-1"
     points="512.03,107.423 512.03,98.071 521.608,98.071 521.608,93.441 512.03,93.441 512.03,88.971 521.608,88.971 521.608,84.334 505.075,84.334 505.075,107.423 "
     id="polygon34" />
  <path
     class="cls-1"
     d="m 535.99547,98.63535 a 3.87322,3.87322 0 0 1 1.55879,1.33229 17.88353,17.88353 0 0 1 1.79854,3.284 l 1.81192,4.17007 h 7.47419 l -2.27157,-5.04932 a 18.42059,18.42059 0 0 0 -2.04512,-3.57055 6.40751,6.40751 0 0 0 -1.83852,-1.54544 15.83422,15.83422 0 0 0 1.692,-1.04586 5.41454,5.41454 0 0 0 1.41893,-1.75195 5.871,5.871 0 0 0 0.66617,-2.96434 7.295,7.295 0 0 0 -0.7928,-3.17081 7.01006,7.01006 0 0 0 -2.65125,-2.81787 8.53329,8.53329 0 0 0 -4.69631,-1.16573 h -11.83736 v 23.022 h 6.97455 v -9.01955 h 0.77275 a 5.65543,5.65543 0 0 1 1.96509,0.29306 z m -2.7379,-9.87224 h 1.45884 a 6.81357,6.81357 0 0 1 3.40407,0.64617 2.33525,2.33525 0 0 1 1.06585,2.21152 v 0.06669 a 2.33073,2.33073 0 0 1 -0.93936,2.085 7.80088,7.80088 0 0 1 -3.50389,0.56623 h -1.48551 z"
     id="path36" />
  <path
     class="cls-1"
     d="m 558.11816,102.74816 h 10.01873 l 1.87851,4.67638 h 7.12111 l -10.172,-23.0886 h -7.70063 l -10.20527,23.0886 h 7.1411 z m 5.02939,-12.37695 3.384,8.34675 h -6.788 z"
     id="path38" />
  <polygon
     class="cls-1"
     points="586.53,84.34 580.2,84.34 580.2,107.422 586.962,107.422 586.962,94.045 593.271,101.787 593.81,101.787 600.099,94.045 600.099,107.422 607.047,107.422 607.047,84.34 600.744,84.34 593.604,93 "
     id="polygon40" />
  <polygon
     class="cls-1"
     points="612.874,84.34 612.874,107.422 630.28,107.422 630.28,102.766 619.842,102.766 619.842,97.842 629.527,97.842 629.527,93.186 619.842,93.186 619.842,88.97 629.987,88.97 629.987,84.34 "
     id="polygon42" />
  <path
     class="cls-1"
     d="m 322.6565,105.56125 0.2931,-0.28642 a 0.20432,0.20432 0 0 1 0.0533,-0.0533 11.7746,11.7746 0 0 0 -0.34639,-16.647 11.96374,11.96374 0 0 0 -8.74643,-3.46395 v 0.06 a 12.01692,12.01692 0 0 0 -8.70657,3.46395 l -0.22645,0.23317 a 11.81129,11.81129 0 0 0 0.22645,16.69356 12.72844,12.72844 0 0 0 17.453,3e-5 z M 306.54246,89.787 a 10.61722,10.61722 0 0 1 14.71517,0 10.43513,10.43513 0 0 1 0,14.60853 10.61317,10.61317 0 0 1 -14.71517,0 l -0.0266,-0.0267 a 10.30454,10.30454 0 0 1 0.0176,-14.57282 l 0.009,-0.009 z"
     id="path44" />
  <path
     class="cls-1"
     d="m 332.31765,97.802 h 4.44977 a 8.733,8.733 0 0 0 5.78221,-1.692 6.08712,6.08712 0 0 0 0.1265,-9.05959 8.63328,8.63328 0 0 0 -5.6356,-1.65206 h -6.41492 l -0.0999,23.23514 h 1.79192 z m 0.10658,-10.89812 h 4.61634 a 6.22254,6.22254 0 0 1 4.17006,1.27231 0.97,0.97 0 0 1 0.23317,0.23317 4.71372,4.71372 0 0 1 -0.25313,6.65477 6.9678,6.9678 0 0 1 -4.42325,1.2324 h -4.34323 z"
     id="path46" />
  <polygon
     class="cls-1"
     points="348.081,85.402 348.081,108.676 361.045,108.676 361.045,107.171 349.873,107.171 349.873,97.718 360.485,97.718 360.485,96.213 349.873,96.213 349.873,86.907 360.771,86.907 360.771,85.402 "
     id="polygon48" />
  <polygon
     class="cls-1"
     points="366.538,108.676 366.538,88.319 384.211,108.676 385.697,108.676 385.697,85.402 383.898,85.402 383.898,105.732 366.264,85.402 364.74,85.402 364.74,108.676 "
     id="polygon50" />
  <polygon
     class="cls-1"
     points="301.63,130.255 301.63,154.893 369.707,154.893 299.439,236.659 299.439,258.013 405.844,258.013 405.844,233.374 335.577,233.374 405.844,151.608 405.844,130.255 "
     id="polygon52" />
  <path
     class="cls-1"
     d="m 473.37466,158.36137 c -30.47977,0 -53.11162,22.814 -53.11162,50.92036 v 0.36539 c 0,28.1074 22.44863,50.556 52.74623,50.556 30.47978,0 53.11057,-22.814 53.11057,-50.92141 v -0.36433 c 4e-5,-28.10738 -22.44863,-50.55601 -52.74518,-50.55601 z m 25.36857,51.28576 c 0,14.41856 -9.49061,26.6469 -25.36857,26.6469 -15.33149,0 -25.735,-12.59373 -25.735,-27.01229 v -0.36433 c 0,-14.41857 9.49061,-26.64689 25.36962,-26.64689 15.33044,0 25.734,12.5932 25.734,27.01122 z"
     id="path54" />
  <polygon
     class="cls-1"
     points="626.684,258.743 651.689,258.743 682.169,160.187 654.608,160.187 638.547,219.685 619.932,159.821 596.022,159.821 577.589,219.503 561.893,160.187 533.785,160.187 563.9,258.743 588.723,258.743 607.885,198.697 "
     id="polygon56" />
  <path
     class="cls-1"
     d="m 785.83706,211.47194 c 0,-27.74147 -14.96611,-53.11057 -47.6361,-53.11057 -28.47172,0 -48.36581,22.99621 -48.36581,50.92036 v 0.36539 c 0,29.93221 21.71892,50.556 51.10358,50.556 17.70388,0 30.8441,-6.936 39.97035,-18.25143 L 765.03,227.89856 c -7.66575,7.1182 -14.41856,10.03813 -23.726,10.03813 -12.41156,0 -21.17242,-6.57064 -23.90912,-19.16437 h 68.07672 c 0.18223,-2.55456 0.36546,-5.11015 0.36546,-7.30038 z m -68.80746,-10.0376 c 2.19022,-12.59373 9.67274,-20.8065 21.17136,-20.8065 11.68079,0 18.98115,8.39548 20.62381,20.8065 z"
     id="path58" />
  <path
     class="cls-1"
     d="M 172.49966,46.63053 Q 89.51333,101.42016 6.78384,156.04028 c 0.20262,0.31409 0.31224,0.499 0.436,0.67378 q 51.82553,73.17425 103.641,146.35551 a 14.84043,14.84043 0 0 1 1.00171,2.04346 Q 190.66345,249.52938 269.668,193.80214 220.99889,120.08766 172.49966,46.63053 Z M 123.4359,243.63288 c -0.84165,-1.20942 -1.58957,-2.49722 -2.53641,-3.61728 a 5.94856,5.94856 0 0 1 -1.29911,-4.99438 c 1.699,-13.63164 3.29915,-27.2758 4.89495,-40.92015 1.44468,-12.35252 2.83884,-24.711 4.26552,-37.0657 0.55675,-4.82115 1.14329,-9.63885 1.70931,-14.45887 0.0332,-0.28324 0.004,-0.5737 0.004,-1.04692 l -53.27791,36.2073 c -4.448,-7.50893 -8.86915,-14.97272 -13.35714,-22.54931 q 38.70936,-27.12772 77.43844,-54.26915 c 1.31831,2.67415 2.58075,5.21863 3.8291,7.77007 3.844,7.85684 7.699,15.70847 11.49432,23.58875 a 4.13233,4.13233 0 0 1 0.31958,2.32975 c -1.013,6.06684 -2.10833,12.12 -3.17133,18.17855 -0.0647,0.369 -0.0713,0.75116 -0.11081,1.22173 l -0.0543,-0.0187 -5.82927,47.92906 47.75372,-33.28207 a 3.90343,3.90343 0 0 1 0.88156,0.88871 c 4.23262,6.13621 8.40348,12.31492 12.59076,18.48238 0.24193,0.35639 0.47441,0.71919 0.78644,1.19321 q -41.54121,29.51079 -83.11162,59.04217 c -1.09908,-1.57263 -2.16222,-3.08907 -3.22006,-4.60919 z"
     id="path60" />
  <metadata
     id="metadata448">
    <rdf:RDF>
      <cc:Work
         rdf:about="">
        <dc:title>zowe-logo</dc:title>
      </cc:Work>
    </rdf:RDF>
  </metadata>
  <text
     xml:space="preserve"
     id="text502"
     style="font-size:66.6667px;white-space:pre;shape-inside:url(#rect504);fill:#d40000"
     transform="translate(35.595506,3.813804)"><tspan
       x="809.16211"
       y="108.27566"
       id="tspan914"><tspan
         style="font-size:80px"
         id="tspan910">Open</tspan><tspan
         style="font-family:Helvetica;-inkscape-font-specification:Helvetica;fill:#ffffff"
         id="tspan912">.</tspan></tspan></text>
  <text
     xml:space="preserve"
     style="font-style:normal;font-variant:normal;font-weight:normal;font-stretch:normal;font-size:37.3333px;font-family:Helvetica;-inkscape-font-specification:Helvetica;fill:#d40000"
     x="902.60034"
     y="115.68539"
     id="text562"><tspan
       sodipodi:role="line"
       id="tspan560"
       x="902.60034"
       y="115.68539" /></text>
  <text
     xml:space="preserve"
     id="text666"
     style="font-style:normal;font-variant:normal;font-weight:normal;font-stretch:normal;font-size:80px;font-family:Helvetica;-inkscape-font-specification:Helvetica;white-space:pre;shape-inside:url(#rect668);fill:#ffffff"
     transform="translate(31.781701,-8.8988761)"><tspan
       x="813.61133"
       y="208.70535"
       id="tspan916">Simple.</tspan></text>
  <text
     xml:space="preserve"
     id="text672"
     style="font-style:normal;font-variant:normal;font-weight:normal;font-stretch:normal;font-size:73.3333px;font-family:Helvetica;-inkscape-font-specification:Helvetica;white-space:pre;shape-inside:url(#rect674);fill:#ffffff"
     transform="translate(29.239165,14.619583)"><tspan
       x="814.24805"
       y="269.72684"
       id="tspan920"><tspan
   style="font-size:80px"
   id="tspan918">Familiar</tspan>.</tspan></text>
</svg>
